Coordinates
version=1
nRows=8
nColumns=63
inDegrees=yes

Units are S.I. units (second, meters, Newtons, ...)
If the header above contains a line with 'inDegrees', this indicates whether rotational values are in degrees (yes) or radians (no).

endheader
time	pelvis_tilt	pelvis_list	pelvis_rotation	pelvis_tx	pelvis_ty	pelvis_tz	hip_flexion_r	hip_adduction_r	hip_rotation_r	knee_angle_r	knee_angle_r_beta	ankle_angle_r	subtalar_angle_r	mtp_angle_r	hip_flexion_l	hip_adduction_l	hip_rotation_l	knee_angle_l	knee_angle_l_beta	ankle_angle_l	subtalar_angle_l	mtp_angle_l	L5_S1_Flex_Ext	L5_S1_Lat_Bending	L5_S1_axial_rotation	L4_L5_Flex_Ext	L4_L5_Lat_Bending	L4_L5_axial_rotation	L3_L4_Flex_Ext	L3_L4_Lat_Bending	L3_L4_axial_rotation	L2_L3_Flex_Ext	L2_L3_Lat_Bending	L2_L3_axial_rotation	L1_L2_Flex_Ext	L1_L2_Lat_Bending	L1_L2_axial_rotation	L1_T12_Flex_Ext	L1_T12_Lat_Bending	L1_T12_axial_rotation	Abs_r3	Abs_r2	Abs_r1	Abs_t1	Abs_t2	neck_flexion	neck_bending	neck_rotation	arm_flex_r	arm_add_r	arm_rot_r	elbow_flex_r	pro_sup_r	wrist_flex_r	wrist_dev_r	arm_flex_l	arm_add_l	arm_rot_l	elbow_flex_l	pro_sup_l	wrist_flex_l	wrist_dev_l
      6.13559322	      5.10224773	     -3.83628075	    102.00387955	      0.26277429	      0.81793210	      0.81519385	      0.32798948	      5.96923331	      1.86646848	     13.11864068	      0.22896347	     28.73797360	     -8.27491474	      0.00000000	      0.32140244	     -4.84892580	     13.45394976	     11.96291417	      0.20879224	     34.23123007	    -11.81830725	      0.00000000	     -0.09207191	      0.53162202	      0.43525610	     -0.17098675	      0.70705729	      0.46245961	     -0.15126495	      1.29258579	      0.46245961	     -0.10522899	      1.29258579	      0.38084909	     -0.08549798	      1.08408363	      0.35364558	     -0.05260989	      0.82348251	      0.32644208	     -0.65766047	      6.01381466	      2.42076387	      0.00000000	      0.00000000	     22.94662408	     -6.47968062	      0.51352032	      6.63650321	    -16.24540676	     46.83126586	     27.31459632	     84.88408487	    -14.39890595	      2.22440789	      9.33693863	    -11.56317319	     32.57083871	     52.06151634	     89.25973230	     -5.01764946	     13.71144062
      6.15254237	      4.95646678	     -3.91617902	    102.25517185	      0.26214255	      0.81841454	      0.81528939	      0.41335200	      5.78017640	      1.72532606	     13.12708235	      0.22911081	     28.71194269	     -8.32232062	      0.00000000	      0.27820040	     -4.70582755	     13.54274482	     11.65174036	      0.20336123	     33.99268706	    -11.54234061	      0.00000000	     -0.09884516	      0.54292732	      0.59670529	     -0.18356535	      0.72209334	      0.63399937	     -0.16239272	      1.32007349	      0.63399937	     -0.11297013	      1.32007349	      0.52211713	     -0.09178762	      1.10713739	      0.48482304	     -0.05648013	      0.84099442	      0.44752896	     -0.70604110	      6.14170244	      3.31869579	      0.00000000	      0.00000000	     22.47475000	     -6.72482475	      0.81911006	      5.63876903	    -16.48811281	     44.06936363	     27.21485518	     84.80845488	    -14.50022228	      1.36669249	     10.39901289	    -11.21953142	     38.38450530	     50.15084741	     89.21178060	     -9.04760821	      8.10987581
      6.16949153	      4.82971356	     -4.02065944	    102.40771708	      0.26185162	      0.81835521	      0.81505109	      0.47542638	      5.61976021	      1.73687430	     13.10337141	      0.22869697	     28.73006284	     -8.35085261	      0.00000000	      0.34350043	     -4.56396638	     13.58647988	     11.57917786	      0.20209478	     33.93882291	    -11.47296116	      0.00000000	     -0.11607145	      0.54276162	      0.60155105	     -0.21555629	      0.72187295	      0.63914799	     -0.19069379	      1.31967060	      0.63914799	     -0.13265806	      1.31967060	      0.52635717	     -0.10778395	      1.10679949	      0.48876023	     -0.06632323	      0.84073775	      0.45116329	     -0.82908677	      6.13982799	      3.34564649	      0.00000000	      0.00000000	     22.49991194	     -6.69758434	      0.90129913	      5.67720039	    -16.66428469	     43.90269171	     27.01454051	     84.72712704	    -14.56559673	      1.31882955	      9.91651109	    -10.63940032	     38.80861048	     50.23902236	     89.15960805	     -8.99036131	      7.95481742
      6.18644068	      4.50617735	     -4.38126536	    103.29752282	      0.26104909	      0.81819385	      0.81480559	      0.58794656	      5.25412224	      1.24628361	     12.76468045	      0.22278570	     28.53784001	     -8.93436805	      0.00000000	      0.62846351	     -4.21247333	     14.32109096	     11.26722131	      0.19665011	     33.68366376	    -11.02132493	      0.00000000	     -0.08047766	      0.51876477	      0.60783065	     -0.14945507	      0.68995714	      0.64582006	     -0.13221675	      1.26132465	      0.64582006	     -0.09197792	      1.26132465	      0.53185182	     -0.07473156	      1.05786511	      0.49386240	     -0.04598494	      0.80356662	      0.45587299	     -0.57484389	      5.86837079	      3.38057171	      0.00000000	      0.00000000	     22.42691800	     -5.59566578	      2.77206342	      4.68186109	    -16.37083991	     40.06831117	     26.78542303	     83.30857754	    -14.21743247	     -0.46115052	     11.19407935	    -10.25428438	     44.16219976	     47.78128632	     89.03951072	    -13.44981575	      0.95874380
      6.20338983	      4.23196721	     -4.70676110	    103.93453702	      0.26065953	      0.81771266	      0.81429735	      0.58259846	      4.93864675	      0.90386039	     12.34628766	      0.21548337	     28.33520012	     -9.32005258	      0.00000000	      0.92262570	     -3.89664135	     14.88003589	     11.15825089	      0.19474822	     33.61354424	    -10.80180506	      0.00000000	     -0.05736531	      0.48708694	      0.52949083	     -0.10653311	      0.64782562	      0.56258401	     -0.09424547	      1.18430318	      0.56258401	     -0.06556281	      1.18430318	      0.46330448	     -0.05326943	      0.99326768	      0.43021130	     -0.03277854	      0.75449766	      0.39711812	     -0.40975466	      5.51002484	      2.94486916	      0.00000000	      0.00000000	     22.73654599	     -4.64590897	      3.96621890	      4.55984097	    -16.08818531	     38.32260348	     26.67137011	     82.32392069	    -13.38846363	     -0.93320993	     11.45053913	    -10.04125878	     45.82913538	     47.32958275	     88.99466538	    -14.19511813	     -0.41379938
      6.22033898	      3.86924237	     -5.02673706	    104.52323376	      0.26046245	      0.81726615	      0.81346272	      0.40184196	      4.54490226	      0.53268352	     11.74535900	      0.20499519	     28.01345000	     -9.64257828	      0.00000000	      1.13810945	     -3.50627562	     15.35855638	     11.00833559	      0.19213170	     33.49013045	    -10.55555214	      0.00000000	     -0.03414245	      0.43682110	      0.44196790	     -0.06340594	      0.58097206	      0.46959090	     -0.05609263	      1.06208682	      0.46959090	     -0.03902140	      1.06208682	      0.38672191	     -0.03170468	      0.89076558	      0.35909892	     -0.01950899	      0.67663588	      0.33147593	     -0.24387609	      4.94140763	      2.45809288	      0.00000000	      0.00000000	     23.15639412	     -3.72573988	      4.78083353	      4.65958806	    -15.66517208	     36.81609181	     26.75541796	     80.83204790	    -12.08559307	     -0.63126981	     11.89883116	    -10.04316018	     47.50556830	     47.09369233	     89.01717871	    -14.24619350	     -0.62352784
      6.23728814	      3.58316987	     -5.35215262	    104.97432193	      0.26053754	      0.81687923	      0.81263121	      0.12204612	      4.22945024	      0.21562486	     10.93219111	      0.19080273	     27.56145005	     -9.83040783	      0.00000000	      1.36416295	     -3.18379768	     15.81974708	     10.88276020	      0.18994000	     33.35883468	    -10.48250744	      0.00000000	     -0.00950085	      0.39015853	      0.41778037	     -0.01764403	      0.51891084	      0.44389164	     -0.01560895	      0.94863144	      0.44389164	     -0.01085852	      0.94863144	      0.36555782	     -0.00882249	      0.79561127	      0.33944655	     -0.00542879	      0.60435556	      0.31333528	     -0.06786362	      4.41355128	      2.32356907	      0.00000000	      0.00000000	     23.59896526	     -3.26423191	      5.01087609	      4.79382338	    -15.21071976	     34.72160534	     27.24072537	     78.70987072	    -10.11471666	      0.44425843	     12.81084433	     -9.97821769	     49.85125170	     46.78958340	     89.05902504	    -14.56122972	      0.10399794
      6.25423729	      3.14606168	     -5.57390720	    105.31247187	      0.26087283	      0.81671327	      0.81149622	     -0.38820147	      3.80225904	     -0.06571409	     10.00970974	      0.17470239	     27.05361237	     -9.93119382	      0.00000000	      1.36333919	     -2.76156802	     16.10459798	     10.65861825	      0.18602798	     33.18050665	    -10.35429064	      0.00000000	     -0.00507080	      0.32075359	      0.43223555	     -0.00941697	      0.42660227	      0.45925027	     -0.00833081	      0.77988028	      0.45925027	     -0.00579541	      0.77988028	      0.37820610	     -0.00470874	      0.65408072	      0.35119138	     -0.00289745	      0.49684731	      0.32417666	     -0.03622019	      3.62842876	      2.40396444	      0.00000000	      0.00000000	     24.02366853	     -3.19912754	      4.27371337	      5.20254212	    -14.61614811	     32.86845394	     27.96457869	     76.59527318	     -8.49926279	      2.38185268	     13.95134670	     -9.87213699	     52.03970643	     46.53679662	     89.08767985	    -13.82813317	      1.85984336
